<?xml version="1.0" encoding="utf-8"?>
<!-- Generator: Adobe Illustrator 24.1.1, SVG Export Plug-In . SVG Version: 6.00 Build 0)  -->
<svg version="1.1" id="Calque_1" xmlns="http://www.w3.org/2000/svg" xmlns:xlink="http://www.w3.org/1999/xlink" x="0px" y="0px"
	 viewBox="0 0 432 432" style="enable-background:new 0 0 432 432;" xml:space="preserve">
<style type="text/css">
	.st0{fill:#0000FF;}
	.st1{fill:#7A00DC;}
	.st2{fill:#7400E0;}
	.st3{fill:#FFFFFF;}
	.st4{font-family:'ArialMT';}
	.st5{font-size:7.11px;}
	.st6{fill:#C00096;}
	.st7{fill:#6200E9;}
	.st8{fill:#B100AB;}
	.st9{fill:#8500D4;}
	.st10{fill:#9F00BE;}
	.st11{fill:#D80071;}
	.st12{fill:#8B00CF;}
	.st13{fill:#9E00BF;}
	.st14{fill:#7500DF;}
	.st15{fill:#AC00B1;}
	.st16{fill:#9600C7;}
	.st17{fill:#D80070;}
	.st18{fill:#BF0098;}
	.st19{fill:#D40077;}
	.st20{fill:#B500A5;}
	.st21{fill:#AA00B2;}
	.st22{fill:#B800A2;}
	.st23{fill:#A400B9;}
	.st24{fill:#7700DE;}
	.st25{fill:#7300E0;}
	.st26{fill:#5500EF;}
	.st27{fill:#5800EE;}
	.st28{fill:#9900C3;}
	.st29{fill:#CF007F;}
	.st30{fill:#A300BA;}
	.st31{fill:#CC0084;}
	.st32{fill:#9700C6;}
	.st33{fill:#3400F9;}
	.st34{fill:#9100CB;}
	.st35{fill:#9300C9;}
	.st36{fill:#CD0082;}
	.st37{fill:#E50056;}
	.st38{fill:#B800A1;}
	.st39{fill:#E3005A;}
	.st40{fill:#8300D6;}
	.st41{fill:#5400F0;}
	.st42{fill:#7E00D9;}
	.st43{fill:#9A00C3;}
	.st44{fill:#2E00FA;}
	.st45{fill:#9600C6;}
	.st46{fill:#8F00CD;}
	.st47{fill:#E1005E;}
	.st48{fill:#DB006B;}
	.st49{fill:#DB0069;}
	.st50{fill:#E2005C;}
	.st51{fill:#CA0087;}
	.st52{fill:#BB009D;}
	.st53{fill:#F20037;}
	.st54{fill:#FB0019;}
	.st55{fill:#FF0000;}
	.st56{fill:#FA001F;}
	.st57{fill:#D70072;}
	.st58{fill:#DC0068;}
	.st59{fill:#CE0081;}
	.st60{fill:#D30079;}
	.st61{fill:#BB009E;}
	.st62{fill:#CD0083;}
	.st63{clip-path:url(#SVGID_24_);}
	.st64{fill:none;}
	.st65{fill:#1A1A1A;}
	.st66{font-size:8.8px;}
	.st67{clip-path:url(#SVGID_28_);}
	.st68{clip-path:url(#SVGID_32_);}
	.st69{enable-background:new    ;}
	.st70{clip-path:url(#SVGID_36_);}
	.st71{clip-path:url(#SVGID_40_);}
	.st72{clip-path:url(#SVGID_44_);}
	.st73{clip-path:url(#SVGID_46_);}
	.st74{fill:none;stroke:#000000;stroke-width:1.07;stroke-linejoin:round;stroke-miterlimit:10;}
	.st75{fill:none;stroke:#333333;stroke-width:1.07;stroke-linejoin:round;stroke-miterlimit:10;}
	.st76{fill:#4D4D4D;}
</style>
<g>
	<defs>
		<rect id="SVGID_1_" width="432" height="432"/>
	</defs>
	<clipPath id="SVGID_2_">
		<use xlink:href="#SVGID_1_"  style="overflow:visible;"/>
	</clipPath>
</g>
<g>
	<defs>
		<rect id="SVGID_3_" width="432" height="432"/>
	</defs>
	<clipPath id="SVGID_4_">
		<use xlink:href="#SVGID_3_"  style="overflow:visible;"/>
	</clipPath>
</g>
<rect x="103" y="111.5" class="st0" width="20.4" height="20.4"/>
<rect x="123.4" y="111.5" class="st1" width="20.4" height="20.4"/>
<rect x="143.8" y="111.5" class="st1" width="20.4" height="20.4"/>
<rect x="164.2" y="111.5" class="st1" width="20.4" height="20.4"/>
<rect x="123.4" y="91.1" class="st2" width="20.4" height="20.4"/>
<rect x="143.8" y="91.1" class="st0" width="20.4" height="20.4"/>
<rect x="164.2" y="91.1" class="st0" width="20.4" height="20.4"/>
<rect x="143.8" y="70.7" class="st0" width="20.4" height="20.4"/>
<rect x="164.2" y="70.7" class="st0" width="20.4" height="20.4"/>
<rect x="164.2" y="50.3" class="st0" width="20.4" height="20.4"/>
<text transform="matrix(1 0 0 1 111.2329 124.23)" class="st3 st4 st5">0</text>
<text transform="matrix(1 0 0 1 126.6809 124.23)" class="st3 st4 st5">0.06</text>
<text transform="matrix(1 0 0 1 147.0609 124.23)" class="st3 st4 st5">0.06</text>
<text transform="matrix(1 0 0 1 167.4509 124.23)" class="st3 st4 st5">0.06</text>
<text transform="matrix(1 0 0 1 126.6809 103.84)" class="st3 st4 st5">0.06</text>
<text transform="matrix(1 0 0 1 152.0029 103.84)" class="st3 st4 st5">0</text>
<text transform="matrix(1 0 0 1 172.3929 103.84)" class="st3 st4 st5">0</text>
<text transform="matrix(1 0 0 1 152.0029 83.45)" class="st3 st4 st5">0</text>
<text transform="matrix(1 0 0 1 172.3929 83.45)" class="st3 st4 st5">0</text>
<text transform="matrix(1 0 0 1 172.3929 63.06)" class="st3 st4 st5">0</text>
<g>
	<defs>
		<rect id="SVGID_5_" width="432" height="432"/>
	</defs>
	<clipPath id="SVGID_6_">
		<use xlink:href="#SVGID_5_"  style="overflow:visible;"/>
	</clipPath>
</g>
<rect x="103" y="223" class="st6" width="20.4" height="20.4"/>
<rect x="123.4" y="223" class="st7" width="20.4" height="20.4"/>
<rect x="143.8" y="223" class="st8" width="20.4" height="20.4"/>
<rect x="164.2" y="223" class="st9" width="20.4" height="20.4"/>
<rect x="123.4" y="202.6" class="st10" width="20.4" height="20.4"/>
<rect x="143.8" y="202.6" class="st11" width="20.4" height="20.4"/>
<rect x="164.2" y="202.6" class="st10" width="20.4" height="20.4"/>
<rect x="143.8" y="182.2" class="st12" width="20.4" height="20.4"/>
<rect x="164.2" y="182.2" class="st13" width="20.4" height="20.4"/>
<rect x="164.2" y="161.8" class="st14" width="20.4" height="20.4"/>
<text transform="matrix(1 0 0 1 106.2909 235.73)" class="st3 st4 st5">0.19</text>
<text transform="matrix(1 0 0 1 126.6809 235.73)" class="st3 st4 st5">0.04</text>
<text transform="matrix(1 0 0 1 147.0609 235.73)" class="st3 st4 st5">0.15</text>
<text transform="matrix(1 0 0 1 167.4509 235.73)" class="st3 st4 st5">0.08</text>
<text transform="matrix(1 0 0 1 126.6809 215.34)" class="st3 st4 st5">0.12</text>
<text transform="matrix(1 0 0 1 147.0609 215.34)" class="st3 st4 st5">0.26</text>
<text transform="matrix(1 0 0 1 167.4509 215.34)" class="st3 st4 st5">0.12</text>
<text transform="matrix(1 0 0 1 147.0609 194.95)" class="st3 st4 st5">0.09</text>
<text transform="matrix(1 0 0 1 167.4509 194.95)" class="st3 st4 st5">0.12</text>
<text transform="matrix(1 0 0 1 167.4509 174.56)" class="st3 st4 st5">0.06</text>
<g>
	<defs>
		<rect id="SVGID_7_" width="432" height="432"/>
	</defs>
	<clipPath id="SVGID_8_">
		<use xlink:href="#SVGID_7_"  style="overflow:visible;"/>
	</clipPath>
</g>
<rect x="103" y="334.5" class="st15" width="20.4" height="20.4"/>
<rect x="123.4" y="334.5" class="st16" width="20.4" height="20.4"/>
<rect x="143.8" y="334.5" class="st17" width="20.4" height="20.4"/>
<rect x="164.2" y="334.5" class="st16" width="20.4" height="20.4"/>
<rect x="123.4" y="314.1" class="st18" width="20.4" height="20.4"/>
<rect x="143.8" y="314.1" class="st19" width="20.4" height="20.4"/>
<rect x="164.2" y="314.1" class="st20" width="20.4" height="20.4"/>
<rect x="143.8" y="293.7" class="st21" width="20.4" height="20.4"/>
<rect x="164.2" y="293.7" class="st22" width="20.4" height="20.4"/>
<rect x="164.2" y="273.3" class="st23" width="20.4" height="20.4"/>
<text transform="matrix(1 0 0 1 106.2909 347.23)" class="st3 st4 st5">0.14</text>
<text transform="matrix(1 0 0 1 128.6581 347.23)" class="st3 st4 st5">0.1</text>
<text transform="matrix(1 0 0 1 147.0609 347.23)" class="st3 st4 st5">0.27</text>
<text transform="matrix(1 0 0 1 169.428 347.23)" class="st3 st4 st5">0.1</text>
<text transform="matrix(1 0 0 1 126.6809 326.84)" class="st3 st4 st5">0.19</text>
<text transform="matrix(1 0 0 1 147.0609 326.84)" class="st3 st4 st5">0.25</text>
<text transform="matrix(1 0 0 1 167.4509 326.84)" class="st3 st4 st5">0.16</text>
<text transform="matrix(1 0 0 1 147.0609 306.45)" class="st3 st4 st5">0.14</text>
<text transform="matrix(1 0 0 1 167.4509 306.45)" class="st3 st4 st5">0.17</text>
<text transform="matrix(1 0 0 1 167.4509 286.06)" class="st3 st4 st5">0.13</text>
<g>
	<defs>
		<rect id="SVGID_9_" width="432" height="432"/>
	</defs>
	<clipPath id="SVGID_10_">
		<use xlink:href="#SVGID_9_"  style="overflow:visible;"/>
	</clipPath>
</g>
<rect x="214.5" y="111.5" class="st24" width="20.4" height="20.4"/>
<rect x="234.9" y="111.5" class="st25" width="20.4" height="20.4"/>
<rect x="255.3" y="111.5" class="st0" width="20.4" height="20.4"/>
<rect x="275.7" y="111.5" class="st26" width="20.4" height="20.4"/>
<rect x="234.9" y="91.1" class="st0" width="20.4" height="20.4"/>
<rect x="255.3" y="91.1" class="st24" width="20.4" height="20.4"/>
<rect x="275.7" y="91.1" class="st26" width="20.4" height="20.4"/>
<rect x="255.3" y="70.7" class="st24" width="20.4" height="20.4"/>
<rect x="275.7" y="70.7" class="st26" width="20.4" height="20.4"/>
<rect x="275.7" y="50.3" class="st27" width="20.4" height="20.4"/>
<text transform="matrix(1 0 0 1 217.791 124.23)" class="st3 st4 st5">0.06</text>
<text transform="matrix(1 0 0 1 238.171 124.23)" class="st3 st4 st5">0.06</text>
<text transform="matrix(1 0 0 1 263.5029 124.23)" class="st3 st4 st5">0</text>
<text transform="matrix(1 0 0 1 278.9509 124.23)" class="st3 st4 st5">0.03</text>
<text transform="matrix(1 0 0 1 243.1129 103.84)" class="st3 st4 st5">0</text>
<text transform="matrix(1 0 0 1 258.5609 103.84)" class="st3 st4 st5">0.06</text>
<text transform="matrix(1 0 0 1 278.9509 103.84)" class="st3 st4 st5">0.03</text>
<text transform="matrix(1 0 0 1 258.5609 83.45)" class="st3 st4 st5">0.06</text>
<text transform="matrix(1 0 0 1 278.9509 83.45)" class="st3 st4 st5">0.03</text>
<text transform="matrix(1 0 0 1 278.9509 63.06)" class="st3 st4 st5">0.03</text>
<g>
	<defs>
		<rect id="SVGID_11_" width="432" height="432"/>
	</defs>
	<clipPath id="SVGID_12_">
		<use xlink:href="#SVGID_11_"  style="overflow:visible;"/>
	</clipPath>
</g>
<rect x="214.5" y="223" class="st28" width="20.4" height="20.4"/>
<rect x="234.9" y="223" class="st29" width="20.4" height="20.4"/>
<rect x="255.3" y="223" class="st30" width="20.4" height="20.4"/>
<rect x="275.7" y="223" class="st31" width="20.4" height="20.4"/>
<rect x="234.9" y="202.6" class="st32" width="20.4" height="20.4"/>
<rect x="255.3" y="202.6" class="st33" width="20.4" height="20.4"/>
<rect x="275.7" y="202.6" class="st32" width="20.4" height="20.4"/>
<rect x="255.3" y="182.2" class="st34" width="20.4" height="20.4"/>
<rect x="275.7" y="182.2" class="st0" width="20.4" height="20.4"/>
<rect x="275.7" y="161.8" class="st35" width="20.4" height="20.4"/>
<text transform="matrix(1 0 0 1 218.0548 235.73)" class="st3 st4 st5">0.11</text>
<text transform="matrix(1 0 0 1 238.171 235.73)" class="st3 st4 st5">0.24</text>
<text transform="matrix(1 0 0 1 258.5609 235.73)" class="st3 st4 st5">0.12</text>
<text transform="matrix(1 0 0 1 278.9509 235.73)" class="st3 st4 st5">0.23</text>
<text transform="matrix(1 0 0 1 240.1481 215.34)" class="st3 st4 st5">0.1</text>
<text transform="matrix(1 0 0 1 258.5609 215.34)" class="st3 st4 st5">0.01</text>
<text transform="matrix(1 0 0 1 280.9281 215.34)" class="st3 st4 st5">0.1</text>
<text transform="matrix(1 0 0 1 258.5609 194.95)" class="st3 st4 st5">0.09</text>
<text transform="matrix(1 0 0 1 283.8929 194.95)" class="st3 st4 st5">0</text>
<text transform="matrix(1 0 0 1 280.9281 174.56)" class="st3 st4 st5">0.1</text>
<g>
	<defs>
		<rect id="SVGID_13_" width="432" height="432"/>
	</defs>
	<clipPath id="SVGID_14_">
		<use xlink:href="#SVGID_13_"  style="overflow:visible;"/>
	</clipPath>
</g>
<rect x="214.5" y="334.5" class="st36" width="20.4" height="20.4"/>
<rect x="234.9" y="334.5" class="st37" width="20.4" height="20.4"/>
<rect x="255.3" y="334.5" class="st38" width="20.4" height="20.4"/>
<rect x="275.7" y="334.5" class="st39" width="20.4" height="20.4"/>
<rect x="234.9" y="314.1" class="st40" width="20.4" height="20.4"/>
<rect x="255.3" y="314.1" class="st41" width="20.4" height="20.4"/>
<rect x="275.7" y="314.1" class="st42" width="20.4" height="20.4"/>
<rect x="255.3" y="293.7" class="st43" width="20.4" height="20.4"/>
<rect x="275.7" y="293.7" class="st44" width="20.4" height="20.4"/>
<rect x="275.7" y="273.3" class="st45" width="20.4" height="20.4"/>
<text transform="matrix(1 0 0 1 217.791 347.23)" class="st3 st4 st5">0.23</text>
<text transform="matrix(1 0 0 1 238.171 347.23)" class="st3 st4 st5">0.32</text>
<text transform="matrix(1 0 0 1 258.5609 347.23)" class="st3 st4 st5">0.17</text>
<text transform="matrix(1 0 0 1 278.9509 347.23)" class="st3 st4 st5">0.31</text>
<text transform="matrix(1 0 0 1 238.171 326.84)" class="st3 st4 st5">0.07</text>
<text transform="matrix(1 0 0 1 258.5609 326.84)" class="st3 st4 st5">0.03</text>
<text transform="matrix(1 0 0 1 278.9509 326.84)" class="st3 st4 st5">0.07</text>
<text transform="matrix(1 0 0 1 217.791 306.45)" class="st3 st4 st5">0.07</text>
<text transform="matrix(1 0 0 1 258.8248 306.45)" class="st3 st4 st5">0.11</text>
<text transform="matrix(1 0 0 1 278.9509 306.45)" class="st3 st4 st5">0.01</text>
<text transform="matrix(1 0 0 1 280.9281 286.06)" class="st3 st4 st5">0.1</text>
<g>
	<defs>
		<rect id="SVGID_15_" width="432" height="432"/>
	</defs>
	<clipPath id="SVGID_16_">
		<use xlink:href="#SVGID_15_"  style="overflow:visible;"/>
	</clipPath>
</g>
<rect x="326" y="111.5" class="st24" width="20.4" height="20.4"/>
<rect x="346.4" y="111.5" class="st10" width="20.4" height="20.4"/>
<rect x="366.8" y="111.5" class="st1" width="20.4" height="20.4"/>
<rect x="387.2" y="111.5" class="st46" width="20.4" height="20.4"/>
<rect x="346.4" y="91.1" class="st2" width="20.4" height="20.4"/>
<rect x="366.8" y="91.1" class="st24" width="20.4" height="20.4"/>
<rect x="387.2" y="91.1" class="st26" width="20.4" height="20.4"/>
<rect x="366.8" y="70.7" class="st24" width="20.4" height="20.4"/>
<rect x="387.2" y="70.7" class="st26" width="20.4" height="20.4"/>
<rect x="387.2" y="50.3" class="st27" width="20.4" height="20.4"/>
<text transform="matrix(1 0 0 1 329.2809 124.23)" class="st3 st4 st5">0.06</text>
<text transform="matrix(1 0 0 1 349.6709 124.23)" class="st3 st4 st5">0.12</text>
<text transform="matrix(1 0 0 1 370.0609 124.23)" class="st3 st4 st5">0.06</text>
<text transform="matrix(1 0 0 1 390.4509 124.23)" class="st3 st4 st5">0.09</text>
<text transform="matrix(1 0 0 1 349.6709 103.84)" class="st3 st4 st5">0.06</text>
<text transform="matrix(1 0 0 1 370.0609 103.84)" class="st3 st4 st5">0.06</text>
<text transform="matrix(1 0 0 1 390.4509 103.84)" class="st3 st4 st5">0.03</text>
<text transform="matrix(1 0 0 1 370.0609 83.45)" class="st3 st4 st5">0.06</text>
<text transform="matrix(1 0 0 1 390.4509 83.45)" class="st3 st4 st5">0.03</text>
<text transform="matrix(1 0 0 1 390.4509 63.06)" class="st3 st4 st5">0.03</text>
<g>
	<defs>
		<rect id="SVGID_17_" width="432" height="432"/>
	</defs>
	<clipPath id="SVGID_18_">
		<use xlink:href="#SVGID_17_"  style="overflow:visible;"/>
	</clipPath>
</g>
<rect x="326" y="223" class="st47" width="20.4" height="20.4"/>
<rect x="346.4" y="223" class="st48" width="20.4" height="20.4"/>
<rect x="366.8" y="223" class="st49" width="20.4" height="20.4"/>
<rect x="387.2" y="223" class="st50" width="20.4" height="20.4"/>
<rect x="346.4" y="202.6" class="st51" width="20.4" height="20.4"/>
<rect x="366.8" y="202.6" class="st48" width="20.4" height="20.4"/>
<rect x="387.2" y="202.6" class="st51" width="20.4" height="20.4"/>
<rect x="366.8" y="182.2" class="st52" width="20.4" height="20.4"/>
<rect x="387.2" y="182.2" class="st13" width="20.4" height="20.4"/>
<rect x="387.2" y="161.8" class="st8" width="20.4" height="20.4"/>
<text transform="matrix(1 0 0 1 331.2581 235.73)" class="st3 st4 st5">0.3</text>
<text transform="matrix(1 0 0 1 349.6709 235.73)" class="st3 st4 st5">0.28</text>
<text transform="matrix(1 0 0 1 370.0609 235.73)" class="st3 st4 st5">0.28</text>
<text transform="matrix(1 0 0 1 392.4281 235.73)" class="st3 st4 st5">0.3</text>
<text transform="matrix(1 0 0 1 349.6709 215.34)" class="st3 st4 st5">0.22</text>
<text transform="matrix(1 0 0 1 370.0609 215.34)" class="st3 st4 st5">0.28</text>
<text transform="matrix(1 0 0 1 390.4509 215.34)" class="st3 st4 st5">0.22</text>
<text transform="matrix(1 0 0 1 370.0609 194.95)" class="st3 st4 st5">0.18</text>
<text transform="matrix(1 0 0 1 390.4509 194.95)" class="st3 st4 st5">0.12</text>
<text transform="matrix(1 0 0 1 390.4509 174.56)" class="st3 st4 st5">0.15</text>
<g>
	<defs>
		<rect id="SVGID_19_" width="432" height="432"/>
	</defs>
	<clipPath id="SVGID_20_">
		<use xlink:href="#SVGID_19_"  style="overflow:visible;"/>
	</clipPath>
</g>
<rect x="326" y="334.5" class="st53" width="20.4" height="20.4"/>
<rect x="346.4" y="334.5" class="st54" width="20.4" height="20.4"/>
<rect x="366.8" y="334.5" class="st55" width="20.4" height="20.4"/>
<rect x="387.2" y="334.5" class="st56" width="20.4" height="20.4"/>
<rect x="346.4" y="314.1" class="st57" width="20.4" height="20.4"/>
<rect x="366.8" y="314.1" class="st58" width="20.4" height="20.4"/>
<rect x="387.2" y="314.1" class="st59" width="20.4" height="20.4"/>
<rect x="366.8" y="293.7" class="st60" width="20.4" height="20.4"/>
<rect x="387.2" y="293.7" class="st61" width="20.4" height="20.4"/>
<rect x="387.2" y="273.3" class="st62" width="20.4" height="20.4"/>
<text transform="matrix(1 0 0 1 329.2809 347.23)" class="st3 st4 st5">0.37</text>
<text transform="matrix(1 0 0 1 349.6709 347.23)" class="st3 st4 st5">0.42</text>
<text transform="matrix(1 0 0 1 370.0609 347.23)" class="st3 st4 st5">0.44</text>
<text transform="matrix(1 0 0 1 390.4509 347.23)" class="st3 st4 st5">0.41</text>
<text transform="matrix(1 0 0 1 349.6709 326.84)" class="st3 st4 st5">0.26</text>
<text transform="matrix(1 0 0 1 370.0609 326.84)" class="st3 st4 st5">0.28</text>
<text transform="matrix(1 0 0 1 390.4509 326.84)" class="st3 st4 st5">0.23</text>
<text transform="matrix(1 0 0 1 370.0609 306.45)" class="st3 st4 st5">0.25</text>
<text transform="matrix(1 0 0 1 390.4509 306.45)" class="st3 st4 st5">0.18</text>
<text transform="matrix(1 0 0 1 390.4509 286.06)" class="st3 st4 st5">0.23</text>
<g>
	<defs>
		<rect id="SVGID_21_" width="432" height="432"/>
	</defs>
	<clipPath id="SVGID_22_">
		<use xlink:href="#SVGID_21_"  style="overflow:visible;"/>
	</clipPath>
</g>
<g>
	<defs>
		<rect id="SVGID_23_" x="80.6" y="11" width="106" height="16.9"/>
	</defs>
	<clipPath id="SVGID_24_">
		<use xlink:href="#SVGID_23_"  style="overflow:visible;"/>
	</clipPath>
	<g class="st63">
		<rect x="80.6" y="11" class="st64" width="106" height="16.9"/>
		<text transform="matrix(1 0 0 1 116.1568 22.59)" class="st65 st4 st66">Turnover</text>
	</g>
</g>
<g>
	<defs>
		<rect id="SVGID_25_" width="432" height="432"/>
	</defs>
	<clipPath id="SVGID_26_">
		<use xlink:href="#SVGID_25_"  style="overflow:visible;"/>
	</clipPath>
</g>
<g>
	<defs>
		<rect id="SVGID_27_" x="192.1" y="11" width="106" height="16.9"/>
	</defs>
	<clipPath id="SVGID_28_">
		<use xlink:href="#SVGID_27_"  style="overflow:visible;"/>
	</clipPath>
	<g class="st67">
		<rect x="192.1" y="11" class="st64" width="106" height="16.9"/>
		<rect x="221.9" y="15" class="st64" width="46.5" height="10.4"/>
		<text transform="matrix(1 0 0 1 221.8545 22.5898)" class="st65 st4 st66">Nestedness</text>
	</g>
</g>
<g>
	<defs>
		<rect id="SVGID_29_" width="432" height="432"/>
	</defs>
	<clipPath id="SVGID_30_">
		<use xlink:href="#SVGID_29_"  style="overflow:visible;"/>
	</clipPath>
</g>
<g>
	<defs>
		<rect id="SVGID_31_" x="303.6" y="11" width="106" height="16.9"/>
	</defs>
	<clipPath id="SVGID_32_">
		<use xlink:href="#SVGID_31_"  style="overflow:visible;"/>
	</clipPath>
	<g class="st68">
		<rect x="303.6" y="11" class="st64" width="106" height="16.9"/>
		<rect x="347.3" y="15" class="st64" width="18.6" height="10.4"/>
		<text transform="matrix(1 0 0 1 347.2959 22.5898)" class="st69"><tspan x="0" y="0" class="st65 st4 st66">Tot</tspan><tspan x="13.7" y="0" class="st65 st4 st66">a</tspan></text>
	</g>
</g>
<g>
	<defs>
		<rect id="SVGID_33_" width="432" height="432"/>
	</defs>
	<clipPath id="SVGID_34_">
		<use xlink:href="#SVGID_33_"  style="overflow:visible;"/>
	</clipPath>
</g>
<g>
	<defs>
		<rect id="SVGID_35_" x="409.6" y="27.9" width="16.9" height="106"/>
	</defs>
	<clipPath id="SVGID_36_">
		<use xlink:href="#SVGID_35_"  style="overflow:visible;"/>
	</clipPath>
	<g class="st70">
		<rect x="409.6" y="27.9" class="st64" width="16.9" height="106"/>
		<rect x="412.1" y="56.5" class="st64" width="10.4" height="48.9"/>
		<text transform="matrix(6.123234e-17 1 -1 6.123234e-17 414.9102 56.4502)" class="st65 st4 st66">Bumblebees</text>
	</g>
</g>
<g>
	<defs>
		<rect id="SVGID_37_" width="432" height="432"/>
	</defs>
	<clipPath id="SVGID_38_">
		<use xlink:href="#SVGID_37_"  style="overflow:visible;"/>
	</clipPath>
</g>
<g>
	<defs>
		<rect id="SVGID_39_" x="409.6" y="139.4" width="16.9" height="106"/>
	</defs>
	<clipPath id="SVGID_40_">
		<use xlink:href="#SVGID_39_"  style="overflow:visible;"/>
	</clipPath>
	<g class="st71">
		<rect x="409.6" y="139.4" class="st64" width="16.9" height="106"/>
		<rect x="412.1" y="172.8" class="st64" width="10.4" height="39.1"/>
		<text transform="matrix(6.123234e-17 1 -1 6.123234e-17 414.9102 172.8462)" class="st65 st4 st66">Butterflies</text>
	</g>
</g>
<g>
	<defs>
		<rect id="SVGID_41_" width="432" height="432"/>
	</defs>
	<clipPath id="SVGID_42_">
		<use xlink:href="#SVGID_41_"  style="overflow:visible;"/>
	</clipPath>
</g>
<g>
	<defs>
		<rect id="SVGID_43_" x="409.6" y="250.9" width="16.9" height="106"/>
	</defs>
	<clipPath id="SVGID_44_">
		<use xlink:href="#SVGID_43_"  style="overflow:visible;"/>
	</clipPath>
	<g class="st72">
		<rect x="409.6" y="250.9" class="st64" width="16.9" height="106"/>
		<rect x="412.1" y="291.7" class="st64" width="10.4" height="24.5"/>
		<text transform="matrix(6.123234e-17 1 -1 6.123234e-17 414.9102 291.6812)" class="st65 st4 st66">Plants</text>
	</g>
</g>
<g>
	<defs>
		<rect id="SVGID_45_" width="432" height="432"/>
	</defs>
	<clipPath id="SVGID_46_">
		<use xlink:href="#SVGID_45_"  style="overflow:visible;"/>
	</clipPath>
	<g class="st73">
		<line class="st74" x1="80.6" y1="356.9" x2="186.6" y2="356.9"/>
		<line class="st75" x1="92.8" y1="359.6" x2="92.8" y2="356.9"/>
		<line class="st75" x1="113.2" y1="359.6" x2="113.2" y2="356.9"/>
		<line class="st75" x1="133.6" y1="359.6" x2="133.6" y2="356.9"/>
		<line class="st75" x1="154" y1="359.6" x2="154" y2="356.9"/>
		<line class="st75" x1="174.4" y1="359.6" x2="174.4" y2="356.9"/>
		
			<rect x="46.8" y="379.7" transform="matrix(0.7071 -0.7071 0.7071 0.7071 -250.0601 166.0109)" class="st64" width="57.2" height="10.4"/>
		<text transform="matrix(0.7071 -0.7071 0.7071 0.7071 56.7998 406.77)" class="st76 st4 st66">Between fields</text>
		
			<rect x="88" y="371" transform="matrix(0.7071 -0.7071 0.7071 0.7071 -235.4413 184.0072)" class="st64" width="32.8" height="10.4"/>
		<text transform="matrix(0.7071 -0.7071 0.7071 0.7071 94.4843 389.477)" class="st76 st4 st66">Big road</text>
		
			<rect x="110.5" y="370.2" transform="matrix(0.7071 -0.7071 0.7071 0.7071 -228.6057 198.7858)" class="st64" width="30.3" height="10.4"/>
		<text transform="matrix(0.7071 -0.7071 0.7071 0.7071 116.6063 387.7451)" class="st76 st4 st66">Pasture</text>
		<text transform="matrix(0.7071 -0.7071 0.7071 0.7071 131.1162 393.6238)" class="st76 st4 st66">Powerline</text>
		<text transform="matrix(0.7071 -0.7071 0.7071 0.7071 149.0876 396.0423)" class="st76 st4 st66">Small road</text>
		<line class="st74" x1="192.1" y1="356.9" x2="298.1" y2="356.9"/>
		<line class="st75" x1="204.3" y1="359.6" x2="204.3" y2="356.9"/>
		<line class="st75" x1="224.7" y1="359.6" x2="224.7" y2="356.9"/>
		<line class="st75" x1="245.1" y1="359.6" x2="245.1" y2="356.9"/>
		<line class="st75" x1="265.5" y1="359.6" x2="265.5" y2="356.9"/>
		<line class="st75" x1="285.9" y1="359.6" x2="285.9" y2="356.9"/>
		
			<rect x="158.3" y="379.7" transform="matrix(0.7071 -0.7071 0.7071 0.7071 -217.4064 244.8494)" class="st64" width="57.2" height="10.4"/>
		<text transform="matrix(0.7071 -0.7071 0.7071 0.7071 168.2997 406.7707)" class="st76 st4 st66">Between fields</text>
		
			<rect x="199.5" y="371" transform="matrix(0.7071 -0.7071 0.7071 0.7071 -202.7881 262.8452)" class="st64" width="32.8" height="10.4"/>
		<text transform="matrix(0.7071 -0.7071 0.7071 0.7071 205.9842 389.4777)" class="st76 st4 st66">Big road</text>
		
			<rect x="222" y="370.2" transform="matrix(0.7071 -0.7071 0.7071 0.7071 -195.9518 277.6245)" class="st64" width="30.3" height="10.4"/>
		<text transform="matrix(0.7071 -0.7071 0.7071 0.7071 228.1061 387.7458)" class="st76 st4 st66">Pasture</text>
		<text transform="matrix(0.7071 -0.7071 0.7071 0.7071 242.6162 393.6238)" class="st76 st4 st66">Powerline</text>
		<text transform="matrix(0.7071 -0.7071 0.7071 0.7071 260.5876 396.0423)" class="st76 st4 st66">Small road</text>
		<line class="st74" x1="303.6" y1="356.9" x2="409.6" y2="356.9"/>
		<line class="st75" x1="315.8" y1="359.6" x2="315.8" y2="356.9"/>
		<line class="st75" x1="336.2" y1="359.6" x2="336.2" y2="356.9"/>
		<line class="st75" x1="356.6" y1="359.6" x2="356.6" y2="356.9"/>
		<line class="st75" x1="377" y1="359.6" x2="377" y2="356.9"/>
		<line class="st75" x1="397.4" y1="359.6" x2="397.4" y2="356.9"/>
		
			<rect x="269.8" y="379.7" transform="matrix(0.7071 -0.7071 0.7071 0.7071 -184.7527 323.6879)" class="st64" width="57.2" height="10.4"/>
		<text transform="matrix(0.7071 -0.7071 0.7071 0.7071 279.7995 406.7714)" class="st76 st4 st66">Between fields</text>
		
			<rect x="311" y="371" transform="matrix(0.7071 -0.7071 0.7071 0.7071 -170.1348 341.6833)" class="st64" width="32.8" height="10.4"/>
		<text transform="matrix(0.7071 -0.7071 0.7071 0.7071 317.4833 389.4777)" class="st76 st4 st66">Big road</text>
		
			<rect x="333.5" y="370.2" transform="matrix(0.7071 -0.7071 0.7071 0.7071 -163.2979 356.4631)" class="st64" width="30.3" height="10.4"/>
		<text transform="matrix(0.7071 -0.7071 0.7071 0.7071 339.6059 387.7451)" class="st76 st4 st66">Pasture</text>
		<text transform="matrix(0.7071 -0.7071 0.7071 0.7071 354.1162 393.6238)" class="st76 st4 st66">Powerline</text>
		<text transform="matrix(0.7071 -0.7071 0.7071 0.7071 372.0776 396.0423)" class="st76 st4 st66">Small road</text>
		<line class="st74" x1="80.6" y1="133.9" x2="80.6" y2="27.9"/>
		<rect x="18.4" y="117.3" class="st64" width="57.2" height="10.4"/>
		<text transform="matrix(1 0 0 1 18.4155 124.8301)" class="st76 st4 st66">Between fields</text>
		<rect x="42.9" y="96.9" class="st64" width="32.8" height="10.4"/>
		<text transform="matrix(1 0 0 1 42.8735 104.4502)" class="st76 st4 st66">Big road</text>
		<rect x="45.3" y="76.5" class="st64" width="30.3" height="10.4"/>
		<text transform="matrix(1 0 0 1 45.3228 84.0601)" class="st76 st4 st66">Pasture</text>
		<text transform="matrix(1 0 0 1 37.0082 63.67)" class="st76 st4 st66">Powerline</text>
		<text transform="matrix(1 0 0 1 33.5879 43.28)" class="st76 st4 st66">Small road</text>
		<line class="st75" x1="77.8" y1="121.7" x2="80.6" y2="121.7"/>
		<line class="st75" x1="77.8" y1="101.3" x2="80.6" y2="101.3"/>
		<line class="st75" x1="77.8" y1="80.9" x2="80.6" y2="80.9"/>
		<line class="st75" x1="77.8" y1="60.5" x2="80.6" y2="60.5"/>
		<line class="st75" x1="77.8" y1="40.1" x2="80.6" y2="40.1"/>
		<line class="st74" x1="80.6" y1="245.4" x2="80.6" y2="139.4"/>
		<rect x="18.4" y="228.8" class="st64" width="57.2" height="10.4"/>
		<text transform="matrix(1 0 0 1 18.4155 236.3301)" class="st76 st4 st66">Between fields</text>
		<rect x="42.9" y="208.4" class="st64" width="32.8" height="10.4"/>
		<text transform="matrix(1 0 0 1 42.8735 215.9399)" class="st76 st4 st66">Big road</text>
		<rect x="45.3" y="188" class="st64" width="30.3" height="10.4"/>
		<text transform="matrix(1 0 0 1 45.3228 195.5601)" class="st76 st4 st66">Pasture</text>
		<text transform="matrix(1 0 0 1 37.0082 175.17)" class="st76 st4 st66">Powerline</text>
		<text transform="matrix(1 0 0 1 33.5879 154.78)" class="st76 st4 st66">Small road</text>
		<line class="st75" x1="77.8" y1="233.2" x2="80.6" y2="233.2"/>
		<line class="st75" x1="77.8" y1="212.8" x2="80.6" y2="212.8"/>
		<line class="st75" x1="77.8" y1="192.4" x2="80.6" y2="192.4"/>
		<line class="st75" x1="77.8" y1="172" x2="80.6" y2="172"/>
		<line class="st75" x1="77.8" y1="151.6" x2="80.6" y2="151.6"/>
		<line class="st74" x1="80.6" y1="356.9" x2="80.6" y2="250.9"/>
		<rect x="18.4" y="340.3" class="st64" width="57.2" height="10.4"/>
		<text transform="matrix(1 0 0 1 18.4155 347.8301)" class="st76 st4 st66">Between fields</text>
		<rect x="42.9" y="319.9" class="st64" width="32.8" height="10.4"/>
		<text transform="matrix(1 0 0 1 42.8735 327.4399)" class="st76 st4 st66">Big road</text>
		<rect x="45.3" y="299.5" class="st64" width="30.3" height="10.4"/>
		<text transform="matrix(1 0 0 1 45.3228 307.0601)" class="st76 st4 st66">Pasture</text>
		<text transform="matrix(1 0 0 1 37.0082 286.67)" class="st76 st4 st66">Powerline</text>
		<text transform="matrix(1 0 0 1 33.5879 266.28)" class="st76 st4 st66">Small road</text>
		<line class="st75" x1="77.8" y1="344.7" x2="80.6" y2="344.7"/>
		<line class="st75" x1="77.8" y1="324.3" x2="80.6" y2="324.3"/>
		<line class="st75" x1="77.8" y1="303.9" x2="80.6" y2="303.9"/>
		<line class="st75" x1="77.8" y1="283.5" x2="80.6" y2="283.5"/>
		<line class="st75" x1="77.8" y1="263.1" x2="80.6" y2="263.1"/>
	</g>
</g>
</svg>
